<svg width="200" height="199" viewBox="0 0 200 199" fill="none" xmlns="http://www.w3.org/2000/svg">
<g clip-path="url(#clip0_4532_129575)">
<path d="M72.7072 143.329C65.7833 148.691 59.6198 155.282 51.6341 158.878C42.4006 163.036 31.3397 162.612 22.2215 158.21C13.1033 153.808 5.99333 145.61 2.43571 136.13C-1.39456 125.924 -0.948874 113.689 5.51094 104.909C9.29927 99.7623 14.9516 95.9346 17.5471 90.0935C20.9133 82.5168 18.213 73.6058 14.2123 66.3437C10.2116 59.0817 4.8896 52.399 2.59564 44.4317C-1.93987 28.6833 7.53226 10.7903 22.3447 3.78259C37.1598 -3.22515 55.6296 -0.0712755 68.7511 9.74429C74.8019 14.2719 80.0453 20.1707 87.0976 22.892C102.615 28.8799 119.604 17.3655 136.178 18.7524C151.132 20.0029 163.96 32.7128 166.666 47.4755C167.654 52.8735 167.415 58.6176 165.153 63.6172C160.329 74.2822 148.065 78.9619 138.91 86.258C132.109 91.6796 126.774 98.9233 123.615 107.024C120.878 114.043 119.635 121.876 114.908 127.741C110.108 133.697 103.737 135.414 96.5173 135.317C87.2837 135.194 80.0898 137.614 72.7072 143.332V143.329Z" fill="#E1EDFF"/>
<path d="M109.416 175.731C109.416 175.731 103.365 159.574 91.5205 154.548C79.6757 149.522 108.391 139.463 108.391 139.463C108.391 139.463 120.118 148.804 120.118 152.393C120.118 155.982 118.204 165.554 116.29 167.709C114.376 169.864 109.416 175.729 109.416 175.729V175.731Z" fill="#E57F6A"/>
<path d="M117.816 152.789C117.097 153.589 116.085 154.131 114.929 154.228L105.947 154.997L57.6063 159.139C55.197 159.343 53.076 157.561 52.8716 155.146L42.8646 38.3135C42.6601 35.9042 44.4429 33.7832 46.8522 33.5787L104.175 28.6683C106.585 28.4638 108.705 30.2466 108.913 32.6559L118.917 149.491C119.024 150.744 118.594 151.919 117.816 152.786V152.789Z" fill="#201600"/>
<path d="M114.119 150.757L57.8185 155.579C56.9062 155.657 56.1013 154.981 56.0227 154.066L46.5663 43.6409C46.4876 42.726 47.164 41.9237 48.079 41.8451L104.38 37.0238C105.295 36.9451 106.097 37.6215 106.175 38.5365L115.632 148.962C115.71 149.874 115.034 150.679 114.119 150.757Z" fill="#EFEFEF"/>
<path d="M80.7867 32.9847L66.3834 34.217C65.8424 34.2633 65.4413 34.7393 65.4876 35.2803L65.5495 36.0039C65.5958 36.5449 66.0719 36.9459 66.6129 36.8996L81.0162 35.6674C81.5572 35.6211 81.9582 35.145 81.9119 34.604L81.85 33.8805C81.8038 33.3395 81.3277 32.9384 80.7867 32.9847Z" fill="#48443E"/>
<path d="M86.1327 33.8705C86.1956 34.6125 85.6477 35.2626 84.9057 35.3256C84.1638 35.3885 83.5136 34.8406 83.4507 34.0986C83.3878 33.3567 83.9357 32.7065 84.6777 32.6436C85.4196 32.5807 86.0698 33.1286 86.1327 33.8705Z" fill="#48443E"/>
<g clip-path="url(#clip1_4532_129575)">
<path d="M71.3096 63.7333C68.5865 63.9695 65.8633 64.2056 65.1883 64.331C63.7343 64.5407 62.8468 65.6884 62.8999 67.0723C62.9501 68.423 65.1414 93.6948 65.3259 95.0506C65.527 96.405 66.6472 97.3618 68.0491 97.3239C69.5673 97.2759 74.5169 96.8634 75.9282 96.7411C73.2352 95.2013 72.6 91.9273 71.8362 85.8204C71.3881 82.1956 70.3986 69.4333 70.3691 68.9006L70.1332 65.4079L84.6601 77.632L85.0201 81.7831L73.4567 72.0958C73.6229 74.206 73.8273 76.9486 74.0447 79.4558C74.2549 81.8801 74.481 84.1022 74.6496 85.2753C75.6269 91.9157 76.53 94.9992 80.1069 95.927C81.2525 96.2125 82.209 96.2466 83.8694 96.1027C85.231 95.9846 94.7619 95.1582 96.1177 94.9737C97.5717 94.764 98.4758 93.6149 98.4227 92.231C98.3559 90.8817 96.1704 65.6763 96.001 64.3025C95.7834 62.9495 94.6646 62.0093 93.2627 62.0473C91.7445 62.0953 86.8058 62.4398 85.3778 62.5637C88.0709 64.1034 88.6895 67.3789 89.4712 73.5009C89.9194 77.1258 90.9075 89.8714 90.9384 90.4208L91.1729 93.8968L76.6957 81.6684L76.3358 77.5173L87.8494 87.209C87.6831 85.0988 87.4788 82.3562 87.2614 79.8489C87.0512 77.4247 86.825 75.2026 86.6578 74.046C85.6791 67.389 84.776 64.3055 81.1992 63.3777C80.1034 63.0879 79.097 63.0581 77.4366 63.2021L71.3096 63.7333Z" fill="#201600"/>
</g>
<path opacity="0.18" d="M117.816 152.789C117.097 153.588 116.085 154.131 114.929 154.228L105.947 154.996C105.801 154.723 105.664 154.448 105.536 154.173C105.135 153.323 104.768 152.458 104.437 151.58C103.273 148.521 102.534 145.301 102.24 142.042C101.695 135.957 102.689 129.684 101.019 123.803C98.9081 116.366 92.9307 110.797 87.6769 105.129C82.7507 99.8176 77.6988 93.169 77.9452 85.5399C78.0238 82.9943 78.868 78.8442 82.3784 80.1419C85.2544 81.2037 87.4357 86.4549 88.9117 88.9088C95.4161 99.7232 103.145 109.801 109.059 120.951C111.031 124.658 112.795 128.528 114.219 132.507C116.565 139.069 117.978 145.917 117.816 152.789Z" fill="#201600"/>
<path d="M159.026 184.367C158.431 187.07 155.888 188.843 153.468 190.185C142.753 196.144 130.387 199.099 118.136 198.614C117.21 198.574 116.298 198.349 115.483 197.911C112.709 196.417 113.354 194.078 113.49 191.928C113.965 184.338 107.678 177.21 109.264 169.778C109.964 166.508 112.161 163.538 112.017 160.198C111.854 156.522 108.962 153.654 107.049 150.514C100.487 139.749 105.292 124.913 99.1233 113.918C96.1215 108.569 90.907 104.883 86.8617 100.269C83.2831 96.1924 80.5985 91.3318 79.0517 86.133C78.5353 84.4053 78.1446 82.5832 78.5169 80.8136C78.5956 80.4256 78.7109 80.0428 78.8735 79.6601C79.3008 78.6402 80.0716 77.7803 81.0888 77.3399C83.9386 76.1129 86.6284 78.6298 88.6104 80.8398C88.9774 81.2488 89.3471 81.6552 89.7167 82.0563C95.9065 88.8071 102.726 94.9759 110.064 100.46C111.608 101.617 113.805 100.487 113.771 98.5545C113.729 96.1111 113.799 93.5183 114.043 92.5456C114.138 92.1786 116.571 94.2681 117.916 95.1332C132.697 104.624 143.097 120.781 145.325 138.239C146.172 144.859 145.918 151.644 147.582 158.103C149.321 164.841 153.046 170.866 156.703 176.783C158.132 179.095 159.613 181.719 159.026 184.367Z" fill="#FF9981"/>
<path d="M82.1873 86.9425C80.4648 84.9316 79.3008 82.5512 78.5195 80.8078C78.5982 80.4197 78.7135 80.037 78.8761 79.6542C79.3034 78.6344 80.0742 77.7745 81.0914 77.334C83.9412 76.1071 86.631 78.6239 88.613 80.834C88.98 81.2429 89.3497 81.6493 89.7193 82.0504C90.0497 83.0519 90.3485 83.938 90.5661 84.5463C91.4968 87.126 85.0632 90.2904 82.1925 86.9399L82.1873 86.9425Z" fill="#FCB1A2"/>
<path d="M85.2255 98.7983C85.0604 98.7983 84.8952 98.7223 84.7903 98.5781C75.8268 86.2798 78.2624 79.7334 78.3725 79.4608C78.4826 79.1855 78.7946 79.0492 79.0725 79.1593C79.3477 79.2694 79.4841 79.5788 79.3766 79.8567C79.3451 79.9379 77.1114 86.2116 85.6634 97.9462C85.839 98.1874 85.7866 98.523 85.5454 98.6987C85.4484 98.7694 85.3383 98.8009 85.2282 98.8009L85.2255 98.7983Z" fill="#C15E4D"/>
<path d="M118.935 110.099C118.762 110.099 118.592 110.015 118.487 109.861C115.215 104.969 110.134 101.144 110.084 101.104C109.846 100.926 109.796 100.588 109.974 100.352C110.152 100.113 110.491 100.063 110.727 100.242C110.942 100.402 116.009 104.216 119.381 109.26C119.546 109.507 119.48 109.842 119.231 110.007C119.14 110.068 119.035 110.099 118.932 110.099H118.935Z" fill="#C15E4D"/>
<path d="M109.437 154.545C109.293 154.545 109.148 154.487 109.041 154.372C103.923 148.85 103.132 140.498 103.1 140.144C103.074 139.848 103.292 139.585 103.588 139.559C103.882 139.53 104.146 139.751 104.173 140.047C104.18 140.131 104.967 148.389 109.83 153.638C110.032 153.855 110.019 154.196 109.801 154.398C109.699 154.495 109.565 154.542 109.434 154.542L109.437 154.545Z" fill="#C15E4D"/>
<path d="M152.021 169.413C151.864 169.413 151.706 169.345 151.599 169.211C148.843 165.761 146.688 159.233 145.973 152.176C145.595 148.445 145.147 143.621 144.822 140.1C144.617 137.893 144.442 135.984 144.415 135.814C144.371 135.52 144.57 135.245 144.864 135.198C145.152 135.153 145.43 135.345 145.48 135.638C145.506 135.801 145.627 137.093 145.897 140.001C146.222 143.519 146.67 148.34 147.048 152.066C147.745 158.927 149.811 165.24 152.446 168.538C152.632 168.771 152.592 169.109 152.362 169.295C152.262 169.374 152.144 169.413 152.026 169.413H152.021Z" fill="#C15E4D"/>
<path d="M127.322 165.021C127.285 165.021 127.251 165.019 127.214 165.011C119.596 163.469 115.417 158.496 114.966 157.935C114.78 157.704 114.817 157.364 115.047 157.177C115.281 156.991 115.619 157.028 115.805 157.259C115.975 157.471 120.057 162.463 127.427 163.954C127.718 164.015 127.907 164.298 127.846 164.589C127.794 164.843 127.571 165.021 127.319 165.021H127.322Z" fill="#C15E4D"/>
<circle cx="160" cy="70" r="30" fill="#E13A3E"/>
<path fill-rule="evenodd" clip-rule="evenodd" d="M170.031 53.6098L160.044 62.7318L150.922 52.7445C150.499 52.2767 149.777 52.2444 149.306 52.677L143.686 57.8116C143.218 58.2343 143.186 58.9563 143.609 59.4241L152.731 69.4114L142.743 78.5334C142.276 78.9561 142.243 79.6781 142.666 80.1459L147.791 85.7634C148.213 86.2312 148.935 86.2635 149.403 85.8408L159.39 76.7188L168.512 86.7061C168.935 87.174 169.657 87.2062 170.128 86.7736L175.748 81.639C176.215 81.2164 176.248 80.4943 175.825 80.0265L166.703 70.0392L176.69 60.9172C177.158 60.4945 177.191 59.7725 176.768 59.3047L171.633 53.6846C171.211 53.2167 170.489 53.1844 170.021 53.6071L170.031 53.6098Z" fill="white"/>
</g>
<defs>
<clipPath id="clip0_4532_129575">
<rect width="200" height="198.666" fill="white"/>
</clipPath>
<clipPath id="clip1_4532_129575">
<rect width="40" height="40" fill="white" transform="translate(59 61.4551) rotate(-4.95572)"/>
</clipPath>
</defs>
</svg>
